<svg id="camera" xmlns="http://www.w3.org/2000/svg" width="28" height="21" viewBox="0 0 28 21">
  <path id="Path_337" data-name="Path 337" d="M26.25,22V11.5A1.75,1.75,0,0,0,24.5,9.75H22.449a5.25,5.25,0,0,1-3.71-1.538L17.287,6.763a1.75,1.75,0,0,0-1.234-.513h-4.1a1.75,1.75,0,0,0-1.237.513L9.263,8.212A5.25,5.25,0,0,1,5.551,9.75H3.5A1.75,1.75,0,0,0,1.75,11.5V22A1.75,1.75,0,0,0,3.5,23.75h21A1.75,1.75,0,0,0,26.25,22ZM3.5,8A3.5,3.5,0,0,0,0,11.5V22a3.5,3.5,0,0,0,3.5,3.5h21A3.5,3.5,0,0,0,28,22V11.5A3.5,3.5,0,0,0,24.5,8H22.449a3.5,3.5,0,0,1-2.474-1.026L18.526,5.525A3.5,3.5,0,0,0,16.051,4.5h-4.1A3.5,3.5,0,0,0,9.475,5.526L8.026,6.975A3.5,3.5,0,0,1,5.551,8Z" transform="translate(0 -4.5)" fill="#fff" fill-rule="evenodd"/>
  <path id="Path_338" data-name="Path 338" d="M17,22.821A4.822,4.822,0,1,0,12.089,18,4.867,4.867,0,0,0,17,22.821Zm0,1.929A6.751,6.751,0,1,0,10.125,18,6.813,6.813,0,0,0,17,24.75Z" transform="translate(-3 -7.023)" fill="#fff" fill-rule="evenodd"/>
  <path id="Path_339" data-name="Path 339" d="M6.75,14.625A1.125,1.125,0,1,1,5.625,13.5,1.125,1.125,0,0,1,6.75,14.625Z" transform="translate(-0.162 -6.682)" fill="#fff"/>
</svg>
