<svg xmlns="http://www.w3.org/2000/svg" width="10.615" height="10.615" viewBox="0 0 10.615 10.615">
  <g id="close" transform="translate(0.5 0.554)">
    <g id="Group_37" data-name="Group 37" transform="translate(0 0)">
      <g id="Group_36" data-name="Group 36" transform="translate(0 0)">
        <path id="Path_87" data-name="Path 87" d="M9.448.113a.386.386,0,0,0-.546,0L.113,8.9a.386.386,0,1,0,.546.546L9.448.66A.386.386,0,0,0,9.448.113Z" transform="translate(0 0)" fill="#fff" stroke="#fff" stroke-width="1"/>
      </g>
    </g>
    <g id="Group_39" data-name="Group 39" transform="translate(0 0)">
      <g id="Group_38" data-name="Group 38" transform="translate(0 0)">
        <path id="Path_88" data-name="Path 88" d="M9.448,8.9.66.114A.386.386,0,1,0,.113.661L8.9,9.449A.386.386,0,1,0,9.448,8.9Z" transform="translate(0 -0.001)" fill="#fff" stroke="#fff" stroke-width="1"/>
      </g>
    </g>
  </g>
</svg>
