<svg xmlns="http://www.w3.org/2000/svg" width="30" height="21" viewBox="0 0 30 21">
  <path id="Icon_awesome-money-check" data-name="Icon awesome-money-check" d="M0,21.75a1.5,1.5,0,0,0,1.5,1.5h27a1.5,1.5,0,0,0,1.5-1.5v-15H0ZM21,12a.75.75,0,0,1,.75-.75h4.5A.75.75,0,0,1,27,12v1.5a.75.75,0,0,1-.75.75h-4.5A.75.75,0,0,1,21,13.5Zm0,5.625a.375.375,0,0,1,.375-.375h5.25a.375.375,0,0,1,.375.375v.75a.375.375,0,0,1-.375.375h-5.25A.375.375,0,0,1,21,18.375Zm-18-4.5a.375.375,0,0,1,.375-.375h14.25a.375.375,0,0,1,.375.375v.75a.375.375,0,0,1-.375.375H3.375A.375.375,0,0,1,3,13.875Zm0,4.5a.375.375,0,0,1,.375-.375h8.25a.375.375,0,0,1,.375.375v.75a.375.375,0,0,1-.375.375H3.375A.375.375,0,0,1,3,18.375ZM29.25,2.25H.75A.75.75,0,0,0,0,3V5.25H30V3A.75.75,0,0,0,29.25,2.25Z" transform="translate(0 -2.25)" fill="#c5c5c5"/>
</svg>
