<svg xmlns="http://www.w3.org/2000/svg" width="11.815" height="13" viewBox="0 0 11.815 13">
  <path id="Combined-Shape" d="M244.363,147.315v-1.772a3.545,3.545,0,0,1,7.018-.709.591.591,0,1,1-1.158.235,2.363,2.363,0,0,0-4.679.473v1.772h6.5a1.772,1.772,0,0,1,1.772,1.772v4.135a1.772,1.772,0,0,1-1.772,1.772h-8.271A1.772,1.772,0,0,1,242,153.222v-4.135a1.772,1.772,0,0,1,1.772-1.772Zm-.591,1.182a.591.591,0,0,0-.591.591v4.135a.591.591,0,0,0,.591.591h8.271a.591.591,0,0,0,.591-.591v-4.135a.591.591,0,0,0-.591-.591Z" transform="translate(-242 -141.994)" fill="#333" opacity="0.65"/>
</svg>
