<svg xmlns="http://www.w3.org/2000/svg" width="10.923" height="14.08" viewBox="0 0 10.923 14.08">
  <g id="bell_2_" data-name="bell (2)" transform="translate(-51.493)">
    <g id="Group_46" data-name="Group 46" transform="translate(51.493)">
      <g id="Group_45" data-name="Group 45" transform="translate(0)">
        <path id="Path_92" data-name="Path 92" d="M175.207,404.514s0,.007,0,.011a1.669,1.669,0,1,0,3.339,0s0-.007,0-.011Z" transform="translate(-171.415 -392.115)" fill="#d9d9d9"/>
        <path id="Path_93" data-name="Path 93" d="M62.285,10.313l-1.5-2.207V5.352A3.829,3.829,0,0,0,57.705,1.6V.751a.751.751,0,0,0-1.5,0V1.6a3.829,3.829,0,0,0-3.077,3.754V8.106l-1.5,2.207a.759.759,0,0,0,.627,1.186h9.4a.759.759,0,0,0,.627-1.186Z" transform="translate(-51.493)" fill="#d9d9d9"/>
      </g>
    </g>
  </g>
</svg>
